<svg width="60" height="61" viewBox="0 0 60 61" fill="none" xmlns="http://www.w3.org/2000/svg">
<circle cx="30" cy="30.7158" r="30" fill="#EFF6F1"/>
<path d="M33.6585 23.2631C34.7231 23.2661 35.7431 23.6747 36.4958 24.3996C37.2486 25.1244 37.6729 26.1067 37.6761 27.1318V34.8685C37.6729 35.8936 37.2486 36.8758 36.4958 37.6007C35.7431 38.3256 34.7231 38.7342 33.6585 38.7372H25.6243C24.5598 38.7342 23.5397 38.3256 22.787 37.6007C22.0342 36.8758 21.6099 35.8936 21.6068 34.8685V27.1318C21.6099 26.1067 22.0342 25.1244 22.787 24.3996C23.5397 23.6747 24.5598 23.2661 25.6243 23.2631H33.6585ZM33.6585 21.7158H25.6243C22.5309 21.7158 20 24.153 20 27.1318V34.8685C20 37.8473 22.5309 40.2845 25.6243 40.2845H33.6585C36.752 40.2845 39.2828 37.8473 39.2828 34.8685V27.1318C39.2828 24.153 36.752 21.7158 33.6585 21.7158Z" fill="#274C5B"/>
<path d="M34.8633 27.1326C34.6249 27.1326 34.3919 27.0645 34.1937 26.937C33.9956 26.8095 33.8411 26.6282 33.7499 26.4162C33.6587 26.2041 33.6348 25.9708 33.6813 25.7457C33.7278 25.5205 33.8426 25.3137 34.0111 25.1514C34.1797 24.9891 34.3944 24.8786 34.6282 24.8338C34.862 24.789 35.1043 24.812 35.3245 24.8999C35.5447 24.9877 35.7329 25.1365 35.8654 25.3273C35.9978 25.5182 36.0685 25.7425 36.0685 25.9721C36.0688 26.1246 36.0379 26.2756 35.9774 26.4166C35.917 26.5575 35.8282 26.6856 35.7163 26.7934C35.6043 26.9013 35.4713 26.9867 35.3249 27.0449C35.1785 27.1031 35.0217 27.1329 34.8633 27.1326ZM29.641 27.906C30.2767 27.906 30.8981 28.0875 31.4266 28.4276C31.9551 28.7677 32.3671 29.251 32.6103 29.8166C32.8536 30.3821 32.9172 31.0044 32.7932 31.6047C32.6692 32.2051 32.3631 32.7565 31.9136 33.1894C31.4641 33.6222 30.8915 33.917 30.268 34.0364C29.6446 34.1558 28.9984 34.0945 28.4111 33.8603C27.8238 33.626 27.3219 33.2293 26.9687 32.7204C26.6156 32.2114 26.4271 31.6131 26.4271 31.0009C26.428 30.1804 26.7669 29.3937 27.3694 28.8135C27.972 28.2333 28.7889 27.9069 29.641 27.906ZM29.641 26.3588C28.6876 26.3588 27.7555 26.631 26.9628 27.1411C26.17 27.6512 25.5521 28.3762 25.1873 29.2245C24.8224 30.0727 24.7269 31.0061 24.9129 31.9066C25.099 32.8071 25.5581 33.6342 26.2323 34.2834C26.9065 34.9327 27.7654 35.3748 28.7005 35.5539C29.6357 35.733 30.605 35.6411 31.4858 35.2897C32.3667 34.9384 33.1196 34.3434 33.6493 33.58C34.179 32.8166 34.4617 31.9191 34.4617 31.0009C34.4617 29.7698 33.9538 28.589 33.0498 27.7184C32.1457 26.8479 30.9196 26.3588 29.641 26.3588Z" fill="#274C5B"/>
</svg>
